<?xml version="1.0" encoding="utf-8"?>
<!-- Generator: Adobe Illustrator 16.0.0, SVG Export Plug-In . SVG Version: 6.00 Build 0)  -->
<!DOCTYPE svg PUBLIC "-//W3C//DTD SVG 1.1//EN" "http://www.w3.org/Graphics/SVG/1.1/DTD/svg11.dtd">
<svg version="1.1" id="Layer_1" xmlns="http://www.w3.org/2000/svg" xmlns:xlink="http://www.w3.org/1999/xlink" x="0px" y="0px"
	 width="480px" height="320px" viewBox="-239.5 840.5 480 320" enable-background="new -239.5 840.5 480 320" xml:space="preserve">
<g id="Layer_2">
	<path fill="#FFFFFF" d="M-86.704,979.951c-0.227-0.682-0.908-1.135-1.59-1.135h-15.44c-0.681,0-1.362,0.453-1.589,1.135
		l-19.527,62.215c-0.227,0.455,0,1.135,0.227,1.59c0.228,0.453,0.908,0.682,1.363,0.682h10.671c0.682,0,1.362-0.455,1.59-1.137
		l13.396-45.639c0,0,0.454-1.135,1.589-1.135s1.589,1.135,1.589,1.135l6.358,21.57h-8.401c-0.681,0-1.362,0.455-1.589,1.135
		l-2.498,8.402c-0.227,0.453,0,1.135,0.228,1.363c0.227,0.453,0.908,0.68,1.362,0.68h14.305l3.86,12.035
		c0.227,0.68,0.909,1.135,1.59,1.135h10.672c0.454,0,1.135-0.227,1.362-0.682c0.227-0.453,0.454-0.908,0.227-1.59L-86.704,979.951z
		 M-40.157,1034.674c0-0.455-0.227-0.908-0.681-1.137c-0.455-0.227-0.909-0.453-1.363-0.227c-1.816,0.455-3.406,0.682-4.768,0.682
		c-2.498,0-3.406-1.137-3.406-3.406v-23.842h9.537c0.908,0,1.589-0.682,1.589-1.59v-7.492c0-0.908-0.681-1.59-1.589-1.59h-9.537
		v-11.354c0-0.453-0.227-0.908-0.681-1.361c-0.455-0.227-0.909-0.455-1.363-0.455l-9.764,1.363c-0.908,0.227-1.362,0.908-1.362,1.59
		v9.99h-5.45c-0.909,0-1.59,0.682-1.59,1.59v7.492c0,0.908,0.681,1.59,1.59,1.59h5.45v25.432c0,8.627,4.541,13.168,13.623,13.168
		c2.498,0,7.039-0.68,9.764-1.59c0.681-0.227,1.136-1.135,1.136-1.816L-40.157,1034.674L-40.157,1034.674z M-21.765,977.453h-9.764
		c-0.908,0-1.589,0.682-1.589,1.59v63.35c0,0.908,0.681,1.59,1.589,1.59h9.764c0.908,0,1.589-0.682,1.589-1.59v-63.35
		C-20.175,978.135-20.856,977.453-21.765,977.453z M3.439,994.938c-4.995,0-11.125,0.682-15.44,2.043
		c-0.908,0.229-1.362,1.135-1.135,1.816l1.135,7.039c0,0.455,0.227,0.908,0.681,1.135c0.454,0.229,0.909,0.455,1.362,0.229
		c4.087-0.908,8.401-1.137,11.808-1.137c7.039,0,8.174,1.59,8.174,6.359v4.086H-0.421c-9.99,0-14.305,4.088-14.305,13.852
		c0,9.309,4.769,14.758,12.943,14.758c4.768,0,9.536-1.361,13.396-3.633l0.455,1.59c0.227,0.682,0.908,1.135,1.589,1.135h7.947
		c0.909,0,1.589-0.682,1.589-1.588v-29.973C23.193,999.705,17.744,994.938,3.439,994.938L3.439,994.938z M10.024,1026.498v5.678
		c-1.59,0.908-4.542,2.043-8.174,2.043c-2.952,0-4.087-0.908-4.087-4.086c0-2.953,0.681-3.861,4.087-3.861h8.174V1026.498z
		 M47.716,1014.238c-6.131-1.59-6.131-1.59-6.131-4.996c0-2.271,0.227-3.406,5.223-3.406c3.406,0,8.628,0.682,11.807,1.135
		c0.455,0,0.909,0,1.363-0.227s0.681-0.682,0.681-1.135l0.908-7.494c0-0.906-0.454-1.588-1.362-1.816
		c-3.86-0.908-9.083-1.361-13.396-1.361c-15.213,0-18.165,5.676-18.165,14.305c0,9.309,1.817,12.488,13.396,15.439
		c7.72,1.816,7.72,3.18,7.72,5.451c0,2.951-0.227,4.086-5.223,4.086c-4.087,0-8.628-0.682-12.715-1.816
		c-0.454-0.227-0.908,0-1.362,0.227c-0.455,0.227-0.682,0.682-0.682,1.137l-1.362,7.037c-0.228,0.908,0.227,1.59,1.135,1.818
		c4.541,1.361,10.899,2.496,15.667,2.496c14.532,0,17.71-6.131,17.71-15.439C62.702,1019.688,60.885,1017.643,47.716,1014.238z
		 M85.863,1014.238c-6.131-1.59-6.131-1.59-6.131-4.996c0-2.271,0.227-3.406,5.222-3.406c3.406,0,8.628,0.682,11.807,1.135
		c0.454,0,0.908,0,1.363-0.227c0.454-0.227,0.681-0.682,0.681-1.135l0.908-7.494c0-0.906-0.454-1.588-1.362-1.816
		c-3.86-0.908-9.083-1.361-13.397-1.361c-15.213,0-18.165,5.676-18.165,14.305c0,9.309,1.816,12.488,13.397,15.439
		c7.72,1.816,7.72,3.18,7.72,5.451c0,2.951-0.227,4.086-5.223,4.086c-4.087,0-8.628-0.682-12.715-1.816
		c-0.454-0.227-0.909,0-1.363,0.227c-0.454,0.227-0.681,0.682-0.681,1.137l-1.363,7.037c-0.227,0.908,0.227,1.59,1.136,1.818
		c4.541,1.361,10.898,2.496,15.667,2.496c14.532,0,17.711-6.131,17.711-15.439C100.622,1019.688,98.805,1017.643,85.863,1014.238
		L85.863,1014.238z M117.651,977.453h-9.764c-0.908,0-1.589,0.682-1.589,1.59v8.855c0,0.908,0.681,1.59,1.589,1.59h9.764
		c0.909,0,1.589-0.682,1.589-1.59v-8.629C119.24,978.135,118.56,977.453,117.651,977.453z M117.651,995.846h-9.764
		c-0.908,0-1.589,0.682-1.589,1.59v44.957c0,0.908,0.681,1.59,1.589,1.59h9.764c0.909,0,1.589-0.682,1.589-1.59v-44.73
		C119.24,996.754,118.56,995.846,117.651,995.846z M143.082,994.938c-4.996,0-11.126,0.682-15.44,2.043
		c-0.908,0.229-1.362,1.135-1.135,1.816l1.135,7.039c0,0.455,0.227,0.908,0.681,1.135c0.455,0.229,0.909,0.455,1.362,0.229
		c4.087-0.908,8.401-1.137,11.808-1.137c7.039,0,8.174,1.59,8.174,6.359v4.086h-10.444c-9.991,0-14.305,4.088-14.305,13.852
		c0,9.309,4.768,14.758,12.942,14.758c4.768,0,9.537-1.361,13.397-3.633l0.454,1.59c0.227,0.682,0.908,1.135,1.589,1.135h7.947
		c0.908,0,1.589-0.682,1.589-1.588v-29.973C162.836,999.705,157.614,994.938,143.082,994.938z M149.667,1026.498v5.678
		c-1.589,0.908-4.541,2.043-8.174,2.043c-2.952,0-4.087-0.908-4.087-4.086c0-2.953,0.681-3.861,4.087-3.861h8.174V1026.498z
		 M199.166,994.938c-5.222,0-12.261,1.816-18.392,4.541l-0.681-2.498c-0.227-0.682-0.908-1.135-1.589-1.135h-7.266
		c-0.908,0-1.589,0.682-1.589,1.59v44.957c0,0.908,0.681,1.59,1.589,1.59h9.764c0.909,0,1.589-0.682,1.589-1.59v-31.107
		c3.633-1.816,8.628-3.633,11.581-3.633c2.271,0,2.952,0.908,2.952,2.951v31.789c0,0.908,0.681,1.59,1.589,1.59h9.764
		c0.908,0,1.589-0.682,1.589-1.59v-32.924C210.519,999.932,206.659,994.938,199.166,994.938z M-112.816,956.791
		c-0.455-0.682-1.135-0.908-1.817-0.908c-0.454,0-0.681,0-1.135,0.227c-13.396,7.266-29.063,11.127-44.958,11.354
		c-16.122,0-31.562-3.859-44.958-11.354c-0.227-0.227-0.681-0.227-1.135-0.227c-0.682,0-1.362,0.453-1.817,0.908
		c-0.681,0.908-0.681,2.271,0.455,3.178c6.812,4.996,14.078,8.857,22.025,11.582c8.174,2.725,16.802,4.086,25.431,4.086
		s17.257-1.361,25.431-4.086c7.947-2.725,15.213-6.586,22.025-11.582C-112.135,959.062-112.135,957.699-112.816,956.791
		L-112.816,956.791z M-128.256,977.68c-0.227-0.227-0.681-0.453-1.135-0.453c-0.227,0-0.454,0-0.681,0.227
		c-3.86,1.59-7.947,2.725-11.353,3.406c-0.681,0.227-1.362,0.682-1.59,1.361c-2.724,7.268-9.309,14.078-16.348,21.346
		c-0.227,0.227-0.681,0.68-1.362,0.68s-1.135-0.453-1.362-0.68c-7.039-7.268-13.851-14.078-16.348-21.117
		c-0.228-0.682-0.909-1.135-1.59-1.363c-3.633-0.908-7.493-2.043-11.353-3.406c-0.227,0-0.454-0.227-0.681-0.227
		c-0.454,0-0.681,0.227-1.135,0.455c-0.454,0.453-0.681,0.908-0.681,1.59c0.681,5.902,2.952,11.807,7.266,17.938
		c4.087,5.676,9.31,11.125,14.305,16.348c9.31,9.537,18.165,18.393,18.846,28.838c0,0.906,0.908,1.588,1.816,1.588h10.899
		c0.454,0,0.908-0.227,1.362-0.453c0.227-0.455,0.454-0.908,0.454-1.363c-0.454-7.039-2.952-13.85-7.947-21.344
		c-1.136-1.588-2.271-2.951-3.406-4.541c-0.454-0.682-0.227-1.363,0-1.816l1.135-1.135c4.995-5.223,10.218-10.445,14.305-16.348
		c4.314-6.131,6.585-12.035,7.266-17.939C-127.575,978.816-127.802,978.135-128.256,977.68L-128.256,977.68z M-172.533,1021.73
		c-0.227-0.227-0.681-0.455-1.362-0.455c-0.908,0-1.362,0.455-1.589,0.91c-4.542,7.037-7.039,13.623-7.266,20.207
		c0,0.455,0.227,0.908,0.454,1.363c0.227,0.453,0.908,0.453,1.362,0.453h10.899c0.908,0,1.816-0.682,1.816-1.588
		c0.227-3.18,1.136-6.359,2.952-9.766c0.681-1.135,0.227-2.27-0.228-2.723C-167.083,1027.635-169.127,1025.137-172.533,1021.73
		L-172.533,1021.73z"/>
	<path fill="#FFFFFF" d="M-160.726,983.131c3.406,0,5.449-0.229,6.131-0.229c0.908,0,1.589,0.682,1.589,1.59
		c0,0.227,0,0.455-0.227,0.682c-0.454,1.135-2.498,5.676-6.358,9.309c-0.454,0.455-0.908,0.455-1.362,0.455
		c-0.227,0-0.908,0-1.362-0.455c-3.86-3.859-5.904-8.174-6.358-9.309c0-0.227-0.227-0.455-0.227-0.682c0-0.908,0.908-1.59,1.59-1.59
		C-166.175,982.902-164.132,983.131-160.726,983.131L-160.726,983.131z"/>
</g>
</svg>
